REM DIRINDEX 1\2,1\3,1\4
REM DIRNAME folder01,folder02,folder03,folder04
TITLE ""
FILE "141 141_Lesson 6_TOEFL_3900.mp3" MP3
  TRACK 01 AUDIO
    TITLE "4:cjc151_6132"
    INDEX 01 00:00:00
  TRACK 02 AUDIO
    TITLE "0:"
    INDEX 01 00:01:62
  TRACK 03 AUDIO
    TITLE "2:cjc151_6133"
    INDEX 01 00:02:43
  TRACK 04 AUDIO
    TITLE "0:"
    INDEX 01 00:04:01
  TRACK 05 AUDIO
    TITLE "3:cjc151_6134"
    INDEX 01 00:05:56
  TRACK 06 AUDIO
    TITLE "0:"
    INDEX 01 00:10:00
  TRACK 07 AUDIO
    TITLE "2:cjc151_6135"
    INDEX 01 00:11:52
  TRACK 08 AUDIO
    TITLE "0:"
    INDEX 01 00:13:00
  TRACK 09 AUDIO
    TITLE "3:cjc151_6136"
    INDEX 01 00:14:53
  TRACK 10 AUDIO
    TITLE "0:"
    INDEX 01 00:19:40
  TRACK 11 AUDIO
    TITLE "2:cjc151_6137"
    INDEX 01 00:21:19
  TRACK 12 AUDIO
    TITLE "0:"
    INDEX 01 00:22:32
  TRACK 13 AUDIO
    TITLE "3:cjc151_6138"
    INDEX 01 00:24:16
  TRACK 14 AUDIO
    TITLE "0:"
    INDEX 01 00:29:62
  TRACK 15 AUDIO
    TITLE "2:cjc151_6139"
    INDEX 01 00:31:39
  TRACK 16 AUDIO
    TITLE "0:"
    INDEX 01 00:32:48
  TRACK 17 AUDIO
    TITLE "3:cjc151_6140"
    INDEX 01 00:34:28
  TRACK 18 AUDIO
    TITLE "0:"
    INDEX 01 00:38:00
  TRACK 19 AUDIO
    TITLE "2:cjc151_6141"
    INDEX 01 00:39:52
  TRACK 20 AUDIO
    TITLE "0:"
    INDEX 01 00:40:66
  TRACK 21 AUDIO
    TITLE "3:cjc151_6142"
    INDEX 01 00:42:45
  TRACK 22 AUDIO
    TITLE "0:"
    INDEX 01 00:46:33
  TRACK 23 AUDIO
    TITLE "2:cjc151_6143"
    INDEX 01 00:48:12
  TRACK 24 AUDIO
    TITLE "0:"
    INDEX 01 00:49:29
  TRACK 25 AUDIO
    TITLE "3:cjc151_6144"
    INDEX 01 00:51:07
  TRACK 26 AUDIO
    TITLE "0:"
    INDEX 01 00:56:06
  TRACK 27 AUDIO
    TITLE "2:cjc151_6145"
    INDEX 01 00:57:58
  TRACK 28 AUDIO
    TITLE "0:"
    INDEX 01 00:58:56
  TRACK 29 AUDIO
    TITLE "3:cjc151_6146"
    INDEX 01 01:00:35
  TRACK 30 AUDIO
    TITLE "0:"
    INDEX 01 01:04:64
  TRACK 31 AUDIO
    TITLE "2:cjc151_6147"
    INDEX 01 01:06:43
  TRACK 32 AUDIO
    TITLE "0:"
    INDEX 01 01:07:66
  TRACK 33 AUDIO
    TITLE "3:cjc151_6148"
    INDEX 01 01:09:46
  TRACK 34 AUDIO
    TITLE "0:"
    INDEX 01 01:13:71
  TRACK 35 AUDIO
    TITLE "2:cjc151_6149"
    INDEX 01 01:15:50
  TRACK 36 AUDIO
    TITLE "0:"
    INDEX 01 01:17:06
  TRACK 37 AUDIO
    TITLE "3:cjc151_6150"
    INDEX 01 01:18:58
  TRACK 38 AUDIO
    TITLE "0:"
    INDEX 01 01:22:33
  TRACK 39 AUDIO
    TITLE "2:cjc151_6151"
    INDEX 01 01:24:10
  TRACK 40 AUDIO
    TITLE "0:"
    INDEX 01 01:25:23
  TRACK 41 AUDIO
    TITLE "3:cjc151_6152"
    INDEX 01 01:27:03
  TRACK 42 AUDIO
    TITLE "0:"
    INDEX 01 01:31:00
  TRACK 43 AUDIO
    TITLE "2:cjc151_6153"
    INDEX 01 01:32:55
  TRACK 44 AUDIO
    TITLE "0:"
    INDEX 01 01:33:68
  TRACK 45 AUDIO
    TITLE "3:cjc151_6154"
    INDEX 01 01:35:47
  TRACK 46 AUDIO
    TITLE "0:"
    INDEX 01 01:40:03
  TRACK 47 AUDIO
    TITLE "2:cjc151_6155"
    INDEX 01 01:41:57
  TRACK 48 AUDIO
    TITLE "0:"
    INDEX 01 01:42:47
  TRACK 49 AUDIO
    TITLE "3:cjc151_6156"
    INDEX 01 01:44:26
  TRACK 50 AUDIO
    TITLE "0:"
    INDEX 01 01:48:32
  TRACK 51 AUDIO
    TITLE "2:cjc151_6157"
    INDEX 01 01:50:09
  TRACK 52 AUDIO
    TITLE "0:"
    INDEX 01 01:51:13
  TRACK 53 AUDIO
    TITLE "3:cjc151_6158"
    INDEX 01 01:52:65
  TRACK 54 AUDIO
    TITLE "0:"
    INDEX 01 01:56:04
  TRACK 55 AUDIO
    TITLE "2:cjc151_6159"
    INDEX 01 01:57:58
  TRACK 56 AUDIO
    TITLE "0:"
    INDEX 01 01:59:06
  TRACK 57 AUDIO
    TITLE "3:cjc151_6160"
    INDEX 01 02:00:61
  TRACK 58 AUDIO
    TITLE "0:"
    INDEX 01 02:04:39
  TRACK 59 AUDIO
    TITLE "2:cjc151_6161"
    INDEX 01 02:06:18
  TRACK 60 AUDIO
    TITLE "0:"
    INDEX 01 02:07:37
  TRACK 61 AUDIO
    TITLE "3:cjc151_6162"
    INDEX 01 02:09:19
  TRACK 62 AUDIO
    TITLE "0:"
    INDEX 01 02:13:54
  TRACK 63 AUDIO
    TITLE "2:cjc151_6163"
    INDEX 01 02:15:29
  TRACK 64 AUDIO
    TITLE "0:"
    INDEX 01 02:16:46
  TRACK 65 AUDIO
    TITLE "3:cjc151_6164"
    INDEX 01 02:18:21
  TRACK 66 AUDIO
    TITLE "0:"
    INDEX 01 02:23:19
  TRACK 67 AUDIO
    TITLE "2:cjc151_6165"
    INDEX 01 02:25:00
  TRACK 68 AUDIO
    TITLE "0:"
    INDEX 01 02:26:03
  TRACK 69 AUDIO
    TITLE "3:cjc151_6166"
    INDEX 01 02:27:60
  TRACK 70 AUDIO
    TITLE "0:"
    INDEX 01 02:30:58
  TRACK 71 AUDIO
    TITLE "2:cjc151_6167"
    INDEX 01 02:32:35
  TRACK 72 AUDIO
    TITLE "0:"
    INDEX 01 02:33:45
  TRACK 73 AUDIO
    TITLE "3:cjc151_6168"
    INDEX 01 02:35:22
  TRACK 74 AUDIO
    TITLE "0:"
    INDEX 01 02:38:71
  TRACK 75 AUDIO
    TITLE "2:cjc151_6169"
    INDEX 01 02:40:50
  TRACK 76 AUDIO
    TITLE "0:"
    INDEX 01 02:41:48
  TRACK 77 AUDIO
    TITLE "3:cjc151_6170"
    INDEX 01 02:43:25
  TRACK 78 AUDIO
    TITLE "0:"
    INDEX 01 02:47:09
  TRACK 79 AUDIO
    TITLE "2:cjc151_6171"
    INDEX 01 02:48:62
  TRACK 80 AUDIO
    TITLE "0:"
    INDEX 01 02:49:73
  TRACK 81 AUDIO
    TITLE "3:cjc151_6172"
    INDEX 01 02:51:50
  TRACK 82 AUDIO
    TITLE "0:"
    INDEX 01 02:55:66
  TRACK 83 AUDIO
    TITLE "2:cjc151_6173"
    INDEX 01 02:57:45
  TRACK 84 AUDIO
    TITLE "0:"
    INDEX 01 02:58:62
  TRACK 85 AUDIO
    TITLE "3:cjc151_6174"
    INDEX 01 03:00:39
  TRACK 86 AUDIO
    TITLE "0:"
    INDEX 01 03:04:71
  TRACK 87 AUDIO
    TITLE "2:cjc151_6175"
    INDEX 01 03:06:48
  TRACK 88 AUDIO
    TITLE "0:"
    INDEX 01 03:07:67
  TRACK 89 AUDIO
    TITLE "3:cjc151_6176"
    INDEX 01 03:09:44
  TRACK 90 AUDIO
    TITLE "0:"
    INDEX 01 03:13:19
